<svg width="206" height="150" viewBox="0 0 206 150" fill="none" xmlns="http://www.w3.org/2000/svg">
<circle cx="102.457" cy="75" r="75" fill="#F6F6F6"/>
<mask id="path-2-inside-1" fill="white">
<path fill-rule="evenodd" clip-rule="evenodd" d="M127.914 53.0172H140.603C151.673 53.0172 160.647 61.9908 160.647 73.0603V74.3535C160.647 85.423 151.673 94.3966 140.603 94.3966H127.914C123.496 94.3966 119.914 90.8148 119.914 86.3965V61.0172C119.914 56.599 123.496 53.0172 127.914 53.0172Z"/>
</mask>
<path fill-rule="evenodd" clip-rule="evenodd" d="M127.914 53.0172H140.603C151.673 53.0172 160.647 61.9908 160.647 73.0603V74.3535C160.647 85.423 151.673 94.3966 140.603 94.3966H127.914C123.496 94.3966 119.914 90.8148 119.914 86.3965V61.0172C119.914 56.599 123.496 53.0172 127.914 53.0172Z" fill="#E8E8E8"/>
<path d="M140.603 49.0172H127.914V57.0172H140.603V49.0172ZM140.603 57.0172C149.464 57.0172 156.647 64.2 156.647 73.0603H164.647C164.647 59.7817 153.882 49.0172 140.603 49.0172V57.0172ZM156.647 73.0603V74.3535H164.647V73.0603H156.647ZM156.647 74.3535C156.647 83.2138 149.464 90.3966 140.603 90.3966V98.3966C153.882 98.3966 164.647 87.6321 164.647 74.3535H156.647ZM127.914 98.3966H140.603V90.3966H127.914V98.3966ZM115.914 86.3965C115.914 93.024 121.286 98.3966 127.914 98.3966V90.3966C125.705 90.3966 123.914 88.6057 123.914 86.3965H115.914ZM115.914 61.0172V86.3965H123.914V61.0172H115.914ZM127.914 49.0172C121.286 49.0172 115.914 54.3898 115.914 61.0172H123.914C123.914 58.8081 125.705 57.0172 127.914 57.0172V49.0172Z" fill="black" mask="url(#path-2-inside-1)"/>
<path d="M159.353 73.7069C161.94 74.4612 167.427 69.666 171.5 66C176.5 61.5 185 61 190 66C196 72 203.741 69.2069 204 63" stroke="black" stroke-width="4"/>
<path d="M135.371 73.7069C135.371 79.1328 134.095 83.9469 132.136 87.3357C130.146 90.7768 127.697 92.3966 125.409 92.3966C123.122 92.3966 120.672 90.7768 118.683 87.3357C116.724 83.9469 115.448 79.1328 115.448 73.7069C115.448 68.281 116.724 63.4669 118.683 60.0781C120.672 56.637 123.122 55.0172 125.409 55.0172C127.697 55.0172 130.146 56.637 132.136 60.0781C134.095 63.4669 135.371 68.281 135.371 73.7069Z" fill="white" stroke="black" stroke-width="4"/>
<rect x="123.147" y="61.4224" width="3.23276" height="10.9914" rx="1.61638" fill="black"/>
<rect x="123.147" y="75.6465" width="3.23276" height="10.9914" rx="1.61638" fill="black"/>
<path d="M48.4698 74.1094C45.8836 73.3551 40.2586 73.1396 38.4483 78.312C36.6379 83.4844 32 88.5 23.5 87.5C11 87.5 8 92.5 2 98.5" stroke="black" stroke-width="4"/>
<mask id="path-9-inside-2" fill="white">
<path fill-rule="evenodd" clip-rule="evenodd" d="M64.9569 94.3966H77.6465C82.0648 94.3966 85.6466 90.8148 85.6466 86.3965V61.0172C85.6466 56.599 82.0648 53.0172 77.6465 53.0172H64.9569C53.8874 53.0172 44.9138 61.9908 44.9138 73.0603V74.3535C44.9138 85.423 53.8874 94.3966 64.9569 94.3966Z"/>
</mask>
<path fill-rule="evenodd" clip-rule="evenodd" d="M64.9569 94.3966H77.6465C82.0648 94.3966 85.6466 90.8148 85.6466 86.3965V61.0172C85.6466 56.599 82.0648 53.0172 77.6465 53.0172H64.9569C53.8874 53.0172 44.9138 61.9908 44.9138 73.0603V74.3535C44.9138 85.423 53.8874 94.3966 64.9569 94.3966Z" fill="#E8E8E8"/>
<path d="M77.6465 90.3966H64.9569V98.3966H77.6465V90.3966ZM81.6466 86.3965C81.6466 88.6057 79.8557 90.3966 77.6465 90.3966V98.3966C84.274 98.3966 89.6466 93.024 89.6466 86.3965H81.6466ZM81.6466 61.0172V86.3965H89.6466V61.0172H81.6466ZM77.6465 57.0172C79.8557 57.0172 81.6466 58.8081 81.6466 61.0172H89.6466C89.6466 54.3898 84.274 49.0172 77.6465 49.0172V57.0172ZM64.9569 57.0172H77.6465V49.0172H64.9569V57.0172ZM64.9569 49.0172C51.6783 49.0172 40.9138 59.7817 40.9138 73.0603H48.9138C48.9138 64.2 56.0965 57.0172 64.9569 57.0172V49.0172ZM40.9138 73.0603V74.3535H48.9138V73.0603H40.9138ZM40.9138 74.3535C40.9138 87.6321 51.6783 98.3966 64.9569 98.3966V90.3966C56.0965 90.3966 48.9138 83.2138 48.9138 74.3535H40.9138Z" fill="black" mask="url(#path-9-inside-2)"/>
<path d="M85.6466 61.3621H83.6466V63.3621V68.5345V70.5345H85.6466H95.9914C98.5243 70.5345 100.578 68.4812 100.578 65.9483C100.578 63.4154 98.5243 61.3621 95.9914 61.3621H85.6466Z" fill="white" stroke="black" stroke-width="4"/>
<path d="M85.6466 76.8793H83.6466V78.8793V84.0517V86.0517H85.6466H95.9914C98.5243 86.0517 100.578 83.9984 100.578 81.4655C100.578 78.9326 98.5243 76.8793 95.9914 76.8793H85.6466Z" fill="white" stroke="black" stroke-width="4"/>
<path fill-rule="evenodd" clip-rule="evenodd" d="M88.7493 119.817L93.9217 108.826L90.3024 107.123L85.13 118.114L88.7493 119.817ZM110.992 108.826L116.165 119.817L119.784 118.114L114.611 107.123L110.992 108.826ZM100.457 107.974V129.31H104.457V107.974H100.457Z" fill="#434142"/>
<path fill-rule="evenodd" clip-rule="evenodd" d="M100.457 42.0258V20.6896H104.457V42.0258H100.457ZM110.992 41.1742L116.165 30.1829L119.784 31.8861L114.611 42.8774L110.992 41.1742ZM88.7493 30.1829L93.9217 41.1742L90.3024 42.8774L85.13 31.8861L88.7493 30.1829Z" fill="#434142"/>
</svg>
